<svg height="202" width="546"><defs><marker id="triangle" viewBox="0 0 14 14" refX="0" refY="5" markerUnits="strokeWidth" markerWidth="10" markerHeight="10" orient="auto"><path d="M 0 0 L 10 5 L 0 10 z"></path></marker></defs><line x1="88" x2="96" y1="16" y2="16" stroke="rgb(0,0,0)" stroke-width="1" stroke-linecap="round" stroke-linejoin="mitter"></line><line x1="216" x2="224" y1="16" y2="16" stroke="rgb(0,0,0)" stroke-width="1" stroke-linecap="round" stroke-linejoin="mitter"></line><line x1="304" x2="312" y1="16" y2="16" stroke="rgb(0,0,0)" stroke-width="1" stroke-linecap="round" stroke-linejoin="mitter"></line><line x1="392" x2="400" y1="16" y2="16" stroke="rgb(0,0,0)" stroke-width="1" stroke-linecap="round" stroke-linejoin="mitter"></line><line x1="432" x2="440" y1="16" y2="16" stroke="rgb(0,0,0)" stroke-width="1" stroke-linecap="round" stroke-linejoin="mitter"></line><line x1="504" x2="512" y1="16" y2="16" stroke="rgb(0,0,0)" stroke-width="1" stroke-linecap="round" stroke-linejoin="mitter"></line><line x1="80" x2="88" y1="32" y2="16" stroke="rgb(0,0,0)" stroke-width="1" stroke-linecap="round" stroke-linejoin="mitter"></line><line x1="96" x2="104" y1="32" y2="16" stroke="rgb(0,0,0)" stroke-width="1" stroke-linecap="round" stroke-linejoin="mitter"></line><line x1="104" x2="112" y1="16" y2="32" stroke="rgb(0,0,0)" stroke-width="1" stroke-linecap="round" stroke-linejoin="mitter"></line><line x1="208" x2="216" y1="32" y2="16" stroke="rgb(0,0,0)" stroke-width="1" stroke-linecap="round" stroke-linejoin="mitter"></line><line x1="216" x2="224" y1="16" y2="32" stroke="rgb(0,0,0)" stroke-width="1" stroke-linecap="round" stroke-linejoin="mitter"></line><line x1="232" x2="240" y1="16" y2="32" stroke="rgb(0,0,0)" stroke-width="1" stroke-linecap="round" stroke-linejoin="mitter"></line><line x1="296" x2="304" y1="32" y2="16" stroke="rgb(0,0,0)" stroke-width="1" stroke-linecap="round" stroke-linejoin="mitter"></line><line x1="304" x2="312" y1="16" y2="32" stroke="rgb(0,0,0)" stroke-width="1" stroke-linecap="round" stroke-linejoin="mitter"></line><line x1="320" x2="328" y1="16" y2="32" stroke="rgb(0,0,0)" stroke-width="1" stroke-linecap="round" stroke-linejoin="mitter"></line><line x1="384" x2="392" y1="32" y2="16" stroke="rgb(0,0,0)" stroke-width="1" stroke-linecap="round" stroke-linejoin="mitter"></line><line x1="392" x2="400" y1="16" y2="32" stroke="rgb(0,0,0)" stroke-width="1" stroke-linecap="round" stroke-linejoin="mitter"></line><line x1="408" x2="416" y1="16" y2="32" stroke="rgb(0,0,0)" stroke-width="1" stroke-linecap="round" stroke-linejoin="mitter"></line><line x1="424" x2="432" y1="32" y2="16" stroke="rgb(0,0,0)" stroke-width="1" stroke-linecap="round" stroke-linejoin="mitter"></line><line x1="432" x2="440" y1="16" y2="32" stroke="rgb(0,0,0)" stroke-width="1" stroke-linecap="round" stroke-linejoin="mitter"></line><line x1="448" x2="456" y1="16" y2="32" stroke="rgb(0,0,0)" stroke-width="1" stroke-linecap="round" stroke-linejoin="mitter"></line><line x1="496" x2="504" y1="32" y2="16" stroke="rgb(0,0,0)" stroke-width="1" stroke-linecap="round" stroke-linejoin="mitter"></line><line x1="504" x2="512" y1="16" y2="32" stroke="rgb(0,0,0)" stroke-width="1" stroke-linecap="round" stroke-linejoin="mitter"></line><line x1="512" x2="528" y1="32" y2="32" stroke="rgb(0,0,0)" stroke-width="1" stroke-linecap="round" stroke-linejoin="mitter"></line><line x1="520" x2="528" y1="16" y2="32" stroke="rgb(0,0,0)" stroke-width="1" stroke-linecap="round" stroke-linejoin="mitter"></line><line x1="72" x2="80" y1="48" y2="32" stroke="rgb(0,0,0)" stroke-width="1" stroke-linecap="round" stroke-linejoin="mitter"></line><line x1="88" x2="96" y1="48" y2="32" stroke="rgb(0,0,0)" stroke-width="1" stroke-linecap="round" stroke-linejoin="mitter"></line><line x1="112" x2="120" y1="32" y2="48" stroke="rgb(0,0,0)" stroke-width="1" stroke-linecap="round" stroke-linejoin="mitter"></line><line x1="200" x2="208" y1="48" y2="32" stroke="rgb(0,0,0)" stroke-width="1" stroke-linecap="round" stroke-linejoin="mitter"></line><line x1="224" x2="232" y1="32" y2="48" stroke="rgb(0,0,0)" stroke-width="1" stroke-linecap="round" stroke-linejoin="mitter"></line><line x1="240" x2="248" y1="32" y2="48" stroke="rgb(0,0,0)" stroke-width="1" stroke-linecap="round" stroke-linejoin="mitter"></line><line x1="296" x2="304" y1="32" y2="48" stroke="rgb(0,0,0)" stroke-width="1" stroke-linecap="round" stroke-linejoin="mitter"></line><line x1="304" x2="320" y1="48" y2="48" stroke="rgb(0,0,0)" stroke-width="1" stroke-linecap="round" stroke-linejoin="mitter"></line><line x1="312" x2="320" y1="32" y2="48" stroke="rgb(0,0,0)" stroke-width="1" stroke-linecap="round" stroke-linejoin="mitter"></line><line x1="328" x2="336" y1="32" y2="48" stroke="rgb(0,0,0)" stroke-width="1" stroke-linecap="round" stroke-linejoin="mitter"></line><line x1="384" x2="392" y1="32" y2="48" stroke="rgb(0,0,0)" stroke-width="1" stroke-linecap="round" stroke-linejoin="mitter"></line><line x1="392" x2="408" y1="48" y2="48" stroke="rgb(0,0,0)" stroke-width="1" stroke-linecap="round" stroke-linejoin="mitter"></line><line x1="400" x2="408" y1="32" y2="48" stroke="rgb(0,0,0)" stroke-width="1" stroke-linecap="round" stroke-linejoin="mitter"></line><line x1="416" x2="424" y1="32" y2="48" stroke="rgb(0,0,0)" stroke-width="1" stroke-linecap="round" stroke-linejoin="mitter"></line><line x1="424" x2="432" y1="32" y2="48" stroke="rgb(0,0,0)" stroke-width="1" stroke-linecap="round" stroke-linejoin="mitter"></line><line x1="440" x2="448" y1="32" y2="48" stroke="rgb(0,0,0)" stroke-width="1" stroke-linecap="round" stroke-linejoin="mitter"></line><line x1="456" x2="464" y1="32" y2="48" stroke="rgb(0,0,0)" stroke-width="1" stroke-linecap="round" stroke-linejoin="mitter"></line><line x1="488" x2="496" y1="48" y2="32" stroke="rgb(0,0,0)" stroke-width="1" stroke-linecap="round" stroke-linejoin="mitter"></line><line x1="504" x2="512" y1="48" y2="32" stroke="rgb(0,0,0)" stroke-width="1" stroke-linecap="round" stroke-linejoin="mitter"></line><line x1="520" x2="528" y1="48" y2="32" stroke="rgb(0,0,0)" stroke-width="1" stroke-linecap="round" stroke-linejoin="mitter"></line><line x1="64" x2="72" y1="64" y2="48" stroke="rgb(0,0,0)" stroke-width="1" stroke-linecap="round" stroke-linejoin="mitter"></line><line x1="80" x2="88" y1="64" y2="48" stroke="rgb(0,0,0)" stroke-width="1" stroke-linecap="round" stroke-linejoin="mitter"></line><line x1="96" x2="104" y1="64" y2="48" stroke="rgb(0,0,0)" stroke-width="1" stroke-linecap="round" stroke-linejoin="mitter"></line><line x1="104" x2="112" y1="48" y2="64" stroke="rgb(0,0,0)" stroke-width="1" stroke-linecap="round" stroke-linejoin="mitter"></line><line x1="120" x2="128" y1="48" y2="64" stroke="rgb(0,0,0)" stroke-width="1" stroke-linecap="round" stroke-linejoin="mitter"></line><line x1="192" x2="200" y1="64" y2="48" stroke="rgb(0,0,0)" stroke-width="1" stroke-linecap="round" stroke-linejoin="mitter"></line><line x1="208" x2="216" y1="64" y2="48" stroke="rgb(0,0,0)" stroke-width="1" stroke-linecap="round" stroke-linejoin="mitter"></line><line x1="216" x2="224" y1="48" y2="64" stroke="rgb(0,0,0)" stroke-width="1" stroke-linecap="round" stroke-linejoin="mitter"></line><line x1="232" x2="240" y1="48" y2="64" stroke="rgb(0,0,0)" stroke-width="1" stroke-linecap="round" stroke-linejoin="mitter"></line><line x1="248" x2="256" y1="48" y2="64" stroke="rgb(0,0,0)" stroke-width="1" stroke-linecap="round" stroke-linejoin="mitter"></line><line x1="296" x2="304" y1="64" y2="48" stroke="rgb(0,0,0)" stroke-width="1" stroke-linecap="round" stroke-linejoin="mitter"></line><line x1="304" x2="312" y1="48" y2="64" stroke="rgb(0,0,0)" stroke-width="1" stroke-linecap="round" stroke-linejoin="mitter"></line><line x1="312" x2="320" y1="64" y2="64" stroke="rgb(0,0,0)" stroke-width="1" stroke-linecap="round" stroke-linejoin="mitter"></line><line x1="320" x2="328" y1="64" y2="64" stroke="rgb(0,0,0)" stroke-width="1" stroke-linecap="round" stroke-linejoin="mitter"></line><line x1="336" x2="344" y1="48" y2="64" stroke="rgb(0,0,0)" stroke-width="1" stroke-linecap="round" stroke-linejoin="mitter"></line><line x1="384" x2="392" y1="64" y2="48" stroke="rgb(0,0,0)" stroke-width="1" stroke-linecap="round" stroke-linejoin="mitter"></line><line x1="392" x2="400" y1="48" y2="64" stroke="rgb(0,0,0)" stroke-width="1" stroke-linecap="round" stroke-linejoin="mitter"></line><line x1="400" x2="408" y1="64" y2="64" stroke="rgb(0,0,0)" stroke-width="1" stroke-linecap="round" stroke-linejoin="mitter"></line><line x1="408" x2="416" y1="64" y2="64" stroke="rgb(0,0,0)" stroke-width="1" stroke-linecap="round" stroke-linejoin="mitter"></line><line x1="424" x2="432" y1="48" y2="64" stroke="rgb(0,0,0)" stroke-width="1" stroke-linecap="round" stroke-linejoin="mitter"></line><line x1="432" x2="440" y1="48" y2="64" stroke="rgb(0,0,0)" stroke-width="1" stroke-linecap="round" stroke-linejoin="mitter"></line><line x1="448" x2="456" y1="48" y2="64" stroke="rgb(0,0,0)" stroke-width="1" stroke-linecap="round" stroke-linejoin="mitter"></line><line x1="464" x2="472" y1="48" y2="64" stroke="rgb(0,0,0)" stroke-width="1" stroke-linecap="round" stroke-linejoin="mitter"></line><line x1="472" x2="480" y1="64" y2="64" stroke="rgb(0,0,0)" stroke-width="1" stroke-linecap="round" stroke-linejoin="mitter"></line><line x1="480" x2="488" y1="64" y2="48" stroke="rgb(0,0,0)" stroke-width="1" stroke-linecap="round" stroke-linejoin="mitter"></line><line x1="496" x2="504" y1="64" y2="48" stroke="rgb(0,0,0)" stroke-width="1" stroke-linecap="round" stroke-linejoin="mitter"></line><line x1="512" x2="520" y1="64" y2="48" stroke="rgb(0,0,0)" stroke-width="1" stroke-linecap="round" stroke-linejoin="mitter"></line><line x1="56" x2="64" y1="80" y2="64" stroke="rgb(0,0,0)" stroke-width="1" stroke-linecap="round" stroke-linejoin="mitter"></line><line x1="72" x2="80" y1="80" y2="64" stroke="rgb(0,0,0)" stroke-width="1" stroke-linecap="round" stroke-linejoin="mitter"></line><line x1="88" x2="96" y1="80" y2="64" stroke="rgb(0,0,0)" stroke-width="1" stroke-linecap="round" stroke-linejoin="mitter"></line><line x1="96" x2="104" y1="64" y2="80" stroke="rgb(0,0,0)" stroke-width="1" stroke-linecap="round" stroke-linejoin="mitter"></line><line x1="112" x2="120" y1="64" y2="80" stroke="rgb(0,0,0)" stroke-width="1" stroke-linecap="round" stroke-linejoin="mitter"></line><line x1="128" x2="136" y1="64" y2="80" stroke="rgb(0,0,0)" stroke-width="1" stroke-linecap="round" stroke-linejoin="mitter"></line><line x1="184" x2="192" y1="80" y2="64" stroke="rgb(0,0,0)" stroke-width="1" stroke-linecap="round" stroke-linejoin="mitter"></line><line x1="200" x2="208" y1="80" y2="64" stroke="rgb(0,0,0)" stroke-width="1" stroke-linecap="round" stroke-linejoin="mitter"></line><line x1="216" x2="224" y1="80" y2="64" stroke="rgb(0,0,0)" stroke-width="1" stroke-linecap="round" stroke-linejoin="mitter"></line><line x1="224" x2="232" y1="64" y2="80" stroke="rgb(0,0,0)" stroke-width="1" stroke-linecap="round" stroke-linejoin="mitter"></line><line x1="240" x2="248" y1="64" y2="80" stroke="rgb(0,0,0)" stroke-width="1" stroke-linecap="round" stroke-linejoin="mitter"></line><line x1="248" x2="264" y1="80" y2="80" stroke="rgb(0,0,0)" stroke-width="1" stroke-linecap="round" stroke-linejoin="mitter"></line><line x1="256" x2="264" y1="64" y2="80" stroke="rgb(0,0,0)" stroke-width="1" stroke-linecap="round" stroke-linejoin="mitter"></line><line x1="288" x2="296" y1="80" y2="64" stroke="rgb(0,0,0)" stroke-width="1" stroke-linecap="round" stroke-linejoin="mitter"></line><line x1="304" x2="312" y1="80" y2="64" stroke="rgb(0,0,0)" stroke-width="1" stroke-linecap="round" stroke-linejoin="mitter"></line><line x1="304" x2="320" y1="80" y2="80" stroke="rgb(0,0,0)" stroke-width="1" stroke-linecap="round" stroke-linejoin="mitter"></line><line x1="328" x2="336" y1="64" y2="80" stroke="rgb(0,0,0)" stroke-width="1" stroke-linecap="round" stroke-linejoin="mitter"></line><line x1="344" x2="352" y1="64" y2="80" stroke="rgb(0,0,0)" stroke-width="1" stroke-linecap="round" stroke-linejoin="mitter"></line><line x1="376" x2="384" y1="80" y2="64" stroke="rgb(0,0,0)" stroke-width="1" stroke-linecap="round" stroke-linejoin="mitter"></line><line x1="392" x2="400" y1="80" y2="64" stroke="rgb(0,0,0)" stroke-width="1" stroke-linecap="round" stroke-linejoin="mitter"></line><line x1="392" x2="408" y1="80" y2="80" stroke="rgb(0,0,0)" stroke-width="1" stroke-linecap="round" stroke-linejoin="mitter"></line><line x1="416" x2="424" y1="64" y2="80" stroke="rgb(0,0,0)" stroke-width="1" stroke-linecap="round" stroke-linejoin="mitter"></line><line x1="432" x2="440" y1="64" y2="80" stroke="rgb(0,0,0)" stroke-width="1" stroke-linecap="round" stroke-linejoin="mitter"></line><line x1="440" x2="448" y1="64" y2="80" stroke="rgb(0,0,0)" stroke-width="1" stroke-linecap="round" stroke-linejoin="mitter"></line><line x1="456" x2="464" y1="64" y2="80" stroke="rgb(0,0,0)" stroke-width="1" stroke-linecap="round" stroke-linejoin="mitter"></line><line x1="464" x2="472" y1="80" y2="80" stroke="rgb(0,0,0)" stroke-width="1" stroke-linecap="round" stroke-linejoin="mitter"></line><line x1="472" x2="480" y1="80" y2="80" stroke="rgb(0,0,0)" stroke-width="1" stroke-linecap="round" stroke-linejoin="mitter"></line><line x1="480" x2="488" y1="80" y2="80" stroke="rgb(0,0,0)" stroke-width="1" stroke-linecap="round" stroke-linejoin="mitter"></line><line x1="488" x2="496" y1="80" y2="64" stroke="rgb(0,0,0)" stroke-width="1" stroke-linecap="round" stroke-linejoin="mitter"></line><line x1="504" x2="512" y1="80" y2="64" stroke="rgb(0,0,0)" stroke-width="1" stroke-linecap="round" stroke-linejoin="mitter"></line><line x1="48" x2="56" y1="96" y2="80" stroke="rgb(0,0,0)" stroke-width="1" stroke-linecap="round" stroke-linejoin="mitter"></line><line x1="64" x2="72" y1="96" y2="80" stroke="rgb(0,0,0)" stroke-width="1" stroke-linecap="round" stroke-linejoin="mitter"></line><line x1="80" x2="88" y1="96" y2="80" stroke="rgb(0,0,0)" stroke-width="1" stroke-linecap="round" stroke-linejoin="mitter"></line><line x1="88" x2="96" y1="80" y2="96" stroke="rgb(0,0,0)" stroke-width="1" stroke-linecap="round" stroke-linejoin="mitter"></line><line x1="104" x2="112" y1="80" y2="96" stroke="rgb(0,0,0)" stroke-width="1" stroke-linecap="round" stroke-linejoin="mitter"></line><line x1="112" x2="128" y1="96" y2="96" stroke="rgb(0,0,0)" stroke-width="1" stroke-linecap="round" stroke-linejoin="mitter"></line><line x1="120" x2="128" y1="80" y2="96" stroke="rgb(0,0,0)" stroke-width="1" stroke-linecap="round" stroke-linejoin="mitter"></line><line x1="136" x2="144" y1="80" y2="96" stroke="rgb(0,0,0)" stroke-width="1" stroke-linecap="round" stroke-linejoin="mitter"></line><line x1="176" x2="184" y1="96" y2="80" stroke="rgb(0,0,0)" stroke-width="1" stroke-linecap="round" stroke-linejoin="mitter"></line><line x1="192" x2="200" y1="96" y2="80" stroke="rgb(0,0,0)" stroke-width="1" stroke-linecap="round" stroke-linejoin="mitter"></line><line x1="192" x2="208" y1="96" y2="96" stroke="rgb(0,0,0)" stroke-width="1" stroke-linecap="round" stroke-linejoin="mitter"></line><line x1="208" x2="216" y1="96" y2="80" stroke="rgb(0,0,0)" stroke-width="1" stroke-linecap="round" stroke-linejoin="mitter"></line><line x1="208" x2="224" y1="96" y2="96" stroke="rgb(0,0,0)" stroke-width="1" stroke-linecap="round" stroke-linejoin="mitter"></line><line x1="232" x2="240" y1="80" y2="96" stroke="rgb(0,0,0)" stroke-width="1" stroke-linecap="round" stroke-linejoin="mitter"></line><line x1="240" x2="248" y1="96" y2="80" stroke="rgb(0,0,0)" stroke-width="1" stroke-linecap="round" stroke-linejoin="mitter"></line><line x1="240" x2="256" y1="96" y2="96" stroke="rgb(0,0,0)" stroke-width="1" stroke-linecap="round" stroke-linejoin="mitter"></line><line x1="256" x2="264" y1="96" y2="80" stroke="rgb(0,0,0)" stroke-width="1" stroke-linecap="round" stroke-linejoin="mitter"></line><line x1="280" x2="288" y1="96" y2="80" stroke="rgb(0,0,0)" stroke-width="1" stroke-linecap="round" stroke-linejoin="mitter"></line><line x1="296" x2="304" y1="96" y2="80" stroke="rgb(0,0,0)" stroke-width="1" stroke-linecap="round" stroke-linejoin="mitter"></line><line x1="312" x2="320" y1="96" y2="80" stroke="rgb(0,0,0)" stroke-width="1" stroke-linecap="round" stroke-linejoin="mitter"></line><line x1="320" x2="328" y1="80" y2="96" stroke="rgb(0,0,0)" stroke-width="1" stroke-linecap="round" stroke-linejoin="mitter"></line><line x1="336" x2="344" y1="80" y2="96" stroke="rgb(0,0,0)" stroke-width="1" stroke-linecap="round" stroke-linejoin="mitter"></line><line x1="352" x2="360" y1="80" y2="96" stroke="rgb(0,0,0)" stroke-width="1" stroke-linecap="round" stroke-linejoin="mitter"></line><line x1="368" x2="376" y1="96" y2="80" stroke="rgb(0,0,0)" stroke-width="1" stroke-linecap="round" stroke-linejoin="mitter"></line><line x1="384" x2="392" y1="96" y2="80" stroke="rgb(0,0,0)" stroke-width="1" stroke-linecap="round" stroke-linejoin="mitter"></line><line x1="400" x2="408" y1="96" y2="80" stroke="rgb(0,0,0)" stroke-width="1" stroke-linecap="round" stroke-linejoin="mitter"></line><line x1="408" x2="416" y1="80" y2="96" stroke="rgb(0,0,0)" stroke-width="1" stroke-linecap="round" stroke-linejoin="mitter"></line><line x1="424" x2="432" y1="80" y2="96" stroke="rgb(0,0,0)" stroke-width="1" stroke-linecap="round" stroke-linejoin="mitter"></line><line x1="440" x2="448" y1="80" y2="96" stroke="rgb(0,0,0)" stroke-width="1" stroke-linecap="round" stroke-linejoin="mitter"></line><line x1="448" x2="456" y1="80" y2="96" stroke="rgb(0,0,0)" stroke-width="1" stroke-linecap="round" stroke-linejoin="mitter"></line><line x1="464" x2="472" y1="80" y2="96" stroke="rgb(0,0,0)" stroke-width="1" stroke-linecap="round" stroke-linejoin="mitter"></line><line x1="480" x2="488" y1="80" y2="96" stroke="rgb(0,0,0)" stroke-width="1" stroke-linecap="round" stroke-linejoin="mitter"></line><line x1="488" x2="496" y1="96" y2="96" stroke="rgb(0,0,0)" stroke-width="1" stroke-linecap="round" stroke-linejoin="mitter"></line><line x1="496" x2="504" y1="96" y2="80" stroke="rgb(0,0,0)" stroke-width="1" stroke-linecap="round" stroke-linejoin="mitter"></line><line x1="40" x2="48" y1="112" y2="96" stroke="rgb(0,0,0)" stroke-width="1" stroke-linecap="round" stroke-linejoin="mitter"></line><line x1="56" x2="64" y1="112" y2="96" stroke="rgb(0,0,0)" stroke-width="1" stroke-linecap="round" stroke-linejoin="mitter"></line><line x1="72" x2="80" y1="112" y2="96" stroke="rgb(0,0,0)" stroke-width="1" stroke-linecap="round" stroke-linejoin="mitter"></line><line x1="80" x2="88" y1="96" y2="112" stroke="rgb(0,0,0)" stroke-width="1" stroke-linecap="round" stroke-linejoin="mitter"></line><line x1="96" x2="104" y1="96" y2="112" stroke="rgb(0,0,0)" stroke-width="1" stroke-linecap="round" stroke-linejoin="mitter"></line><line x1="112" x2="120" y1="96" y2="112" stroke="rgb(0,0,0)" stroke-width="1" stroke-linecap="round" stroke-linejoin="mitter"></line><line x1="120" x2="128" y1="112" y2="112" stroke="rgb(0,0,0)" stroke-width="1" stroke-linecap="round" stroke-linejoin="mitter"></line><line x1="128" x2="136" y1="112" y2="112" stroke="rgb(0,0,0)" stroke-width="1" stroke-linecap="round" stroke-linejoin="mitter"></line><line x1="136" x2="152" y1="112" y2="112" stroke="rgb(0,0,0)" stroke-width="1" stroke-linecap="round" stroke-linejoin="mitter"></line><line x1="144" x2="152" y1="96" y2="112" stroke="rgb(0,0,0)" stroke-width="1" stroke-linecap="round" stroke-linejoin="mitter"></line><line x1="168" x2="176" y1="112" y2="96" stroke="rgb(0,0,0)" stroke-width="1" stroke-linecap="round" stroke-linejoin="mitter"></line><line x1="184" x2="192" y1="112" y2="96" stroke="rgb(0,0,0)" stroke-width="1" stroke-linecap="round" stroke-linejoin="mitter"></line><line x1="184" x2="200" y1="112" y2="112" stroke="rgb(0,0,0)" stroke-width="1" stroke-linecap="round" stroke-linejoin="mitter"></line><line x1="200" x2="208" y1="112" y2="112" stroke="rgb(0,0,0)" stroke-width="1" stroke-linecap="round" stroke-linejoin="mitter"></line><line x1="208" x2="216" y1="112" y2="112" stroke="rgb(0,0,0)" stroke-width="1" stroke-linecap="round" stroke-linejoin="mitter"></line><line x1="216" x2="224" y1="112" y2="112" stroke="rgb(0,0,0)" stroke-width="1" stroke-linecap="round" stroke-linejoin="mitter"></line><line x1="224" x2="232" y1="112" y2="96" stroke="rgb(0,0,0)" stroke-width="1" stroke-linecap="round" stroke-linejoin="mitter"></line><line x1="232" x2="240" y1="96" y2="112" stroke="rgb(0,0,0)" stroke-width="1" stroke-linecap="round" stroke-linejoin="mitter"></line><line x1="272" x2="280" y1="112" y2="96" stroke="rgb(0,0,0)" stroke-width="1" stroke-linecap="round" stroke-linejoin="mitter"></line><line x1="288" x2="296" y1="112" y2="96" stroke="rgb(0,0,0)" stroke-width="1" stroke-linecap="round" stroke-linejoin="mitter"></line><line x1="304" x2="312" y1="112" y2="96" stroke="rgb(0,0,0)" stroke-width="1" stroke-linecap="round" stroke-linejoin="mitter"></line><line x1="328" x2="336" y1="96" y2="112" stroke="rgb(0,0,0)" stroke-width="1" stroke-linecap="round" stroke-linejoin="mitter"></line><line x1="336" x2="344" y1="112" y2="96" stroke="rgb(0,0,0)" stroke-width="1" stroke-linecap="round" stroke-linejoin="mitter"></line><line x1="336" x2="352" y1="112" y2="112" stroke="rgb(0,0,0)" stroke-width="1" stroke-linecap="round" stroke-linejoin="mitter"></line><line x1="352" x2="360" y1="112" y2="96" stroke="rgb(0,0,0)" stroke-width="1" stroke-linecap="round" stroke-linejoin="mitter"></line><line x1="360" x2="368" y1="112" y2="96" stroke="rgb(0,0,0)" stroke-width="1" stroke-linecap="round" stroke-linejoin="mitter"></line><line x1="376" x2="384" y1="112" y2="96" stroke="rgb(0,0,0)" stroke-width="1" stroke-linecap="round" stroke-linejoin="mitter"></line><line x1="392" x2="400" y1="112" y2="96" stroke="rgb(0,0,0)" stroke-width="1" stroke-linecap="round" stroke-linejoin="mitter"></line><line x1="416" x2="424" y1="96" y2="112" stroke="rgb(0,0,0)" stroke-width="1" stroke-linecap="round" stroke-linejoin="mitter"></line><line x1="424" x2="432" y1="112" y2="96" stroke="rgb(0,0,0)" stroke-width="1" stroke-linecap="round" stroke-linejoin="mitter"></line><line x1="424" x2="440" y1="112" y2="112" stroke="rgb(0,0,0)" stroke-width="1" stroke-linecap="round" stroke-linejoin="mitter"></line><line x1="440" x2="448" y1="112" y2="96" stroke="rgb(0,0,0)" stroke-width="1" stroke-linecap="round" stroke-linejoin="mitter"></line><line x1="456" x2="464" y1="96" y2="112" stroke="rgb(0,0,0)" stroke-width="1" stroke-linecap="round" stroke-linejoin="mitter"></line><line x1="472" x2="480" y1="96" y2="112" stroke="rgb(0,0,0)" stroke-width="1" stroke-linecap="round" stroke-linejoin="mitter"></line><line x1="488" x2="496" y1="96" y2="112" stroke="rgb(0,0,0)" stroke-width="1" stroke-linecap="round" stroke-linejoin="mitter"></line><line x1="32" x2="40" y1="128" y2="112" stroke="rgb(0,0,0)" stroke-width="1" stroke-linecap="round" stroke-linejoin="mitter"></line><line x1="48" x2="56" y1="128" y2="112" stroke="rgb(0,0,0)" stroke-width="1" stroke-linecap="round" stroke-linejoin="mitter"></line><line x1="64" x2="72" y1="128" y2="112" stroke="rgb(0,0,0)" stroke-width="1" stroke-linecap="round" stroke-linejoin="mitter"></line><line x1="88" x2="96" y1="112" y2="128" stroke="rgb(0,0,0)" stroke-width="1" stroke-linecap="round" stroke-linejoin="mitter"></line><line x1="104" x2="112" y1="112" y2="128" stroke="rgb(0,0,0)" stroke-width="1" stroke-linecap="round" stroke-linejoin="mitter"></line><line x1="120" x2="128" y1="112" y2="128" stroke="rgb(0,0,0)" stroke-width="1" stroke-linecap="round" stroke-linejoin="mitter"></line><line x1="128" x2="136" y1="128" y2="128" stroke="rgb(0,0,0)" stroke-width="1" stroke-linecap="round" stroke-linejoin="mitter"></line><line x1="136" x2="144" y1="128" y2="128" stroke="rgb(0,0,0)" stroke-width="1" stroke-linecap="round" stroke-linejoin="mitter"></line><line x1="144" x2="152" y1="128" y2="112" stroke="rgb(0,0,0)" stroke-width="1" stroke-linecap="round" stroke-linejoin="mitter"></line><line x1="160" x2="168" y1="128" y2="112" stroke="rgb(0,0,0)" stroke-width="1" stroke-linecap="round" stroke-linejoin="mitter"></line><line x1="176" x2="184" y1="128" y2="112" stroke="rgb(0,0,0)" stroke-width="1" stroke-linecap="round" stroke-linejoin="mitter"></line><line x1="184" x2="192" y1="112" y2="128" stroke="rgb(0,0,0)" stroke-width="1" stroke-linecap="round" stroke-linejoin="mitter"></line><line x1="192" x2="200" y1="128" y2="128" stroke="rgb(0,0,0)" stroke-width="1" stroke-linecap="round" stroke-linejoin="mitter"></line><line x1="200" x2="208" y1="128" y2="128" stroke="rgb(0,0,0)" stroke-width="1" stroke-linecap="round" stroke-linejoin="mitter"></line><line x1="208" x2="216" y1="128" y2="128" stroke="rgb(0,0,0)" stroke-width="1" stroke-linecap="round" stroke-linejoin="mitter"></line><line x1="216" x2="232" y1="128" y2="128" stroke="rgb(0,0,0)" stroke-width="1" stroke-linecap="round" stroke-linejoin="mitter"></line><line x1="224" x2="232" y1="112" y2="128" stroke="rgb(0,0,0)" stroke-width="1" stroke-linecap="round" stroke-linejoin="mitter"></line><line x1="232" x2="240" y1="128" y2="112" stroke="rgb(0,0,0)" stroke-width="1" stroke-linecap="round" stroke-linejoin="mitter"></line><line x1="264" x2="272" y1="128" y2="112" stroke="rgb(0,0,0)" stroke-width="1" stroke-linecap="round" stroke-linejoin="mitter"></line><line x1="280" x2="288" y1="128" y2="112" stroke="rgb(0,0,0)" stroke-width="1" stroke-linecap="round" stroke-linejoin="mitter"></line><line x1="296" x2="304" y1="128" y2="112" stroke="rgb(0,0,0)" stroke-width="1" stroke-linecap="round" stroke-linejoin="mitter"></line><line x1="352" x2="360" y1="128" y2="112" stroke="rgb(0,0,0)" stroke-width="1" stroke-linecap="round" stroke-linejoin="mitter"></line><line x1="368" x2="376" y1="128" y2="112" stroke="rgb(0,0,0)" stroke-width="1" stroke-linecap="round" stroke-linejoin="mitter"></line><line x1="384" x2="392" y1="128" y2="112" stroke="rgb(0,0,0)" stroke-width="1" stroke-linecap="round" stroke-linejoin="mitter"></line><line x1="464" x2="472" y1="112" y2="128" stroke="rgb(0,0,0)" stroke-width="1" stroke-linecap="round" stroke-linejoin="mitter"></line><line x1="480" x2="488" y1="112" y2="128" stroke="rgb(0,0,0)" stroke-width="1" stroke-linecap="round" stroke-linejoin="mitter"></line><line x1="496" x2="504" y1="112" y2="128" stroke="rgb(0,0,0)" stroke-width="1" stroke-linecap="round" stroke-linejoin="mitter"></line><line x1="24" x2="32" y1="144" y2="128" stroke="rgb(0,0,0)" stroke-width="1" stroke-linecap="round" stroke-linejoin="mitter"></line><line x1="40" x2="48" y1="144" y2="128" stroke="rgb(0,0,0)" stroke-width="1" stroke-linecap="round" stroke-linejoin="mitter"></line><line x1="56" x2="64" y1="144" y2="128" stroke="rgb(0,0,0)" stroke-width="1" stroke-linecap="round" stroke-linejoin="mitter"></line><line x1="56" x2="72" y1="144" y2="144" stroke="rgb(0,0,0)" stroke-width="1" stroke-linecap="round" stroke-linejoin="mitter"></line><line x1="72" x2="80" y1="144" y2="144" stroke="rgb(0,0,0)" stroke-width="1" stroke-linecap="round" stroke-linejoin="mitter"></line><line x1="80" x2="88" y1="144" y2="144" stroke="rgb(0,0,0)" stroke-width="1" stroke-linecap="round" stroke-linejoin="mitter"></line><line x1="88" x2="104" y1="144" y2="144" stroke="rgb(0,0,0)" stroke-width="1" stroke-linecap="round" stroke-linejoin="mitter"></line><line x1="96" x2="104" y1="128" y2="144" stroke="rgb(0,0,0)" stroke-width="1" stroke-linecap="round" stroke-linejoin="mitter"></line><line x1="104" x2="120" y1="144" y2="144" stroke="rgb(0,0,0)" stroke-width="1" stroke-linecap="round" stroke-linejoin="mitter"></line><line x1="112" x2="120" y1="128" y2="144" stroke="rgb(0,0,0)" stroke-width="1" stroke-linecap="round" stroke-linejoin="mitter"></line><line x1="128" x2="136" y1="128" y2="144" stroke="rgb(0,0,0)" stroke-width="1" stroke-linecap="round" stroke-linejoin="mitter"></line><line x1="152" x2="160" y1="144" y2="128" stroke="rgb(0,0,0)" stroke-width="1" stroke-linecap="round" stroke-linejoin="mitter"></line><line x1="168" x2="176" y1="144" y2="128" stroke="rgb(0,0,0)" stroke-width="1" stroke-linecap="round" stroke-linejoin="mitter"></line><line x1="184" x2="192" y1="144" y2="128" stroke="rgb(0,0,0)" stroke-width="1" stroke-linecap="round" stroke-linejoin="mitter"></line><line x1="184" x2="200" y1="144" y2="144" stroke="rgb(0,0,0)" stroke-width="1" stroke-linecap="round" stroke-linejoin="mitter"></line><line x1="200" x2="208" y1="144" y2="144" stroke="rgb(0,0,0)" stroke-width="1" stroke-linecap="round" stroke-linejoin="mitter"></line><line x1="208" x2="216" y1="144" y2="144" stroke="rgb(0,0,0)" stroke-width="1" stroke-linecap="round" stroke-linejoin="mitter"></line><line x1="216" x2="224" y1="144" y2="144" stroke="rgb(0,0,0)" stroke-width="1" stroke-linecap="round" stroke-linejoin="mitter"></line><line x1="224" x2="232" y1="144" y2="144" stroke="rgb(0,0,0)" stroke-width="1" stroke-linecap="round" stroke-linejoin="mitter"></line><line x1="232" x2="240" y1="144" y2="144" stroke="rgb(0,0,0)" stroke-width="1" stroke-linecap="round" stroke-linejoin="mitter"></line><line x1="256" x2="264" y1="144" y2="128" stroke="rgb(0,0,0)" stroke-width="1" stroke-linecap="round" stroke-linejoin="mitter"></line><line x1="272" x2="280" y1="144" y2="128" stroke="rgb(0,0,0)" stroke-width="1" stroke-linecap="round" stroke-linejoin="mitter"></line><line x1="288" x2="296" y1="144" y2="128" stroke="rgb(0,0,0)" stroke-width="1" stroke-linecap="round" stroke-linejoin="mitter"></line><line x1="344" x2="352" y1="144" y2="128" stroke="rgb(0,0,0)" stroke-width="1" stroke-linecap="round" stroke-linejoin="mitter"></line><line x1="360" x2="368" y1="144" y2="128" stroke="rgb(0,0,0)" stroke-width="1" stroke-linecap="round" stroke-linejoin="mitter"></line><line x1="376" x2="384" y1="144" y2="128" stroke="rgb(0,0,0)" stroke-width="1" stroke-linecap="round" stroke-linejoin="mitter"></line><line x1="472" x2="480" y1="128" y2="144" stroke="rgb(0,0,0)" stroke-width="1" stroke-linecap="round" stroke-linejoin="mitter"></line><line x1="488" x2="496" y1="128" y2="144" stroke="rgb(0,0,0)" stroke-width="1" stroke-linecap="round" stroke-linejoin="mitter"></line><line x1="504" x2="512" y1="128" y2="144" stroke="rgb(0,0,0)" stroke-width="1" stroke-linecap="round" stroke-linejoin="mitter"></line><line x1="16" x2="24" y1="160" y2="144" stroke="rgb(0,0,0)" stroke-width="1" stroke-linecap="round" stroke-linejoin="mitter"></line><line x1="32" x2="40" y1="160" y2="144" stroke="rgb(0,0,0)" stroke-width="1" stroke-linecap="round" stroke-linejoin="mitter"></line><line x1="48" x2="56" y1="160" y2="144" stroke="rgb(0,0,0)" stroke-width="1" stroke-linecap="round" stroke-linejoin="mitter"></line><line x1="48" x2="64" y1="160" y2="160" stroke="rgb(0,0,0)" stroke-width="1" stroke-linecap="round" stroke-linejoin="mitter"></line><line x1="64" x2="72" y1="160" y2="160" stroke="rgb(0,0,0)" stroke-width="1" stroke-linecap="round" stroke-linejoin="mitter"></line><line x1="72" x2="80" y1="160" y2="160" stroke="rgb(0,0,0)" stroke-width="1" stroke-linecap="round" stroke-linejoin="mitter"></line><line x1="80" x2="88" y1="160" y2="160" stroke="rgb(0,0,0)" stroke-width="1" stroke-linecap="round" stroke-linejoin="mitter"></line><line x1="88" x2="96" y1="160" y2="160" stroke="rgb(0,0,0)" stroke-width="1" stroke-linecap="round" stroke-linejoin="mitter"></line><line x1="96" x2="104" y1="160" y2="160" stroke="rgb(0,0,0)" stroke-width="1" stroke-linecap="round" stroke-linejoin="mitter"></line><line x1="104" x2="112" y1="160" y2="160" stroke="rgb(0,0,0)" stroke-width="1" stroke-linecap="round" stroke-linejoin="mitter"></line><line x1="112" x2="120" y1="160" y2="160" stroke="rgb(0,0,0)" stroke-width="1" stroke-linecap="round" stroke-linejoin="mitter"></line><line x1="120" x2="128" y1="160" y2="160" stroke="rgb(0,0,0)" stroke-width="1" stroke-linecap="round" stroke-linejoin="mitter"></line><line x1="128" x2="144" y1="160" y2="160" stroke="rgb(0,0,0)" stroke-width="1" stroke-linecap="round" stroke-linejoin="mitter"></line><line x1="136" x2="144" y1="144" y2="160" stroke="rgb(0,0,0)" stroke-width="1" stroke-linecap="round" stroke-linejoin="mitter"></line><line x1="144" x2="152" y1="160" y2="144" stroke="rgb(0,0,0)" stroke-width="1" stroke-linecap="round" stroke-linejoin="mitter"></line><line x1="160" x2="168" y1="160" y2="144" stroke="rgb(0,0,0)" stroke-width="1" stroke-linecap="round" stroke-linejoin="mitter"></line><line x1="176" x2="184" y1="160" y2="144" stroke="rgb(0,0,0)" stroke-width="1" stroke-linecap="round" stroke-linejoin="mitter"></line><line x1="176" x2="192" y1="160" y2="160" stroke="rgb(0,0,0)" stroke-width="1" stroke-linecap="round" stroke-linejoin="mitter"></line><line x1="192" x2="200" y1="160" y2="160" stroke="rgb(0,0,0)" stroke-width="1" stroke-linecap="round" stroke-linejoin="mitter"></line><line x1="200" x2="208" y1="160" y2="160" stroke="rgb(0,0,0)" stroke-width="1" stroke-linecap="round" stroke-linejoin="mitter"></line><line x1="208" x2="216" y1="160" y2="160" stroke="rgb(0,0,0)" stroke-width="1" stroke-linecap="round" stroke-linejoin="mitter"></line><line x1="216" x2="224" y1="160" y2="160" stroke="rgb(0,0,0)" stroke-width="1" stroke-linecap="round" stroke-linejoin="mitter"></line><line x1="224" x2="232" y1="160" y2="160" stroke="rgb(0,0,0)" stroke-width="1" stroke-linecap="round" stroke-linejoin="mitter"></line><line x1="232" x2="248" y1="160" y2="160" stroke="rgb(0,0,0)" stroke-width="1" stroke-linecap="round" stroke-linejoin="mitter"></line><line x1="240" x2="248" y1="144" y2="160" stroke="rgb(0,0,0)" stroke-width="1" stroke-linecap="round" stroke-linejoin="mitter"></line><line x1="248" x2="256" y1="160" y2="144" stroke="rgb(0,0,0)" stroke-width="1" stroke-linecap="round" stroke-linejoin="mitter"></line><line x1="248" x2="264" y1="160" y2="160" stroke="rgb(0,0,0)" stroke-width="1" stroke-linecap="round" stroke-linejoin="mitter"></line><line x1="264" x2="272" y1="160" y2="144" stroke="rgb(0,0,0)" stroke-width="1" stroke-linecap="round" stroke-linejoin="mitter"></line><line x1="280" x2="288" y1="160" y2="144" stroke="rgb(0,0,0)" stroke-width="1" stroke-linecap="round" stroke-linejoin="mitter"></line><line x1="336" x2="344" y1="160" y2="144" stroke="rgb(0,0,0)" stroke-width="1" stroke-linecap="round" stroke-linejoin="mitter"></line><line x1="336" x2="352" y1="160" y2="160" stroke="rgb(0,0,0)" stroke-width="1" stroke-linecap="round" stroke-linejoin="mitter"></line><line x1="352" x2="360" y1="160" y2="144" stroke="rgb(0,0,0)" stroke-width="1" stroke-linecap="round" stroke-linejoin="mitter"></line><line x1="368" x2="376" y1="160" y2="144" stroke="rgb(0,0,0)" stroke-width="1" stroke-linecap="round" stroke-linejoin="mitter"></line><line x1="480" x2="488" y1="144" y2="160" stroke="rgb(0,0,0)" stroke-width="1" stroke-linecap="round" stroke-linejoin="mitter"></line><line x1="496" x2="504" y1="144" y2="160" stroke="rgb(0,0,0)" stroke-width="1" stroke-linecap="round" stroke-linejoin="mitter"></line><line x1="504" x2="520" y1="160" y2="160" stroke="rgb(0,0,0)" stroke-width="1" stroke-linecap="round" stroke-linejoin="mitter"></line><line x1="512" x2="520" y1="144" y2="160" stroke="rgb(0,0,0)" stroke-width="1" stroke-linecap="round" stroke-linejoin="mitter"></line><line x1="16" x2="24" y1="160" y2="176" stroke="rgb(0,0,0)" stroke-width="1" stroke-linecap="round" stroke-linejoin="mitter"></line><line x1="24" x2="32" y1="176" y2="160" stroke="rgb(0,0,0)" stroke-width="1" stroke-linecap="round" stroke-linejoin="mitter"></line><line x1="24" x2="40" y1="176" y2="176" stroke="rgb(0,0,0)" stroke-width="1" stroke-linecap="round" stroke-linejoin="mitter"></line><line x1="40" x2="48" y1="176" y2="176" stroke="rgb(0,0,0)" stroke-width="1" stroke-linecap="round" stroke-linejoin="mitter"></line><line x1="48" x2="56" y1="176" y2="176" stroke="rgb(0,0,0)" stroke-width="1" stroke-linecap="round" stroke-linejoin="mitter"></line><line x1="56" x2="64" y1="176" y2="176" stroke="rgb(0,0,0)" stroke-width="1" stroke-linecap="round" stroke-linejoin="mitter"></line><line x1="64" x2="72" y1="176" y2="176" stroke="rgb(0,0,0)" stroke-width="1" stroke-linecap="round" stroke-linejoin="mitter"></line><line x1="72" x2="80" y1="176" y2="176" stroke="rgb(0,0,0)" stroke-width="1" stroke-linecap="round" stroke-linejoin="mitter"></line><line x1="80" x2="88" y1="176" y2="176" stroke="rgb(0,0,0)" stroke-width="1" stroke-linecap="round" stroke-linejoin="mitter"></line><line x1="88" x2="96" y1="176" y2="176" stroke="rgb(0,0,0)" stroke-width="1" stroke-linecap="round" stroke-linejoin="mitter"></line><line x1="96" x2="104" y1="176" y2="176" stroke="rgb(0,0,0)" stroke-width="1" stroke-linecap="round" stroke-linejoin="mitter"></line><line x1="104" x2="112" y1="176" y2="176" stroke="rgb(0,0,0)" stroke-width="1" stroke-linecap="round" stroke-linejoin="mitter"></line><line x1="112" x2="120" y1="176" y2="176" stroke="rgb(0,0,0)" stroke-width="1" stroke-linecap="round" stroke-linejoin="mitter"></line><line x1="120" x2="128" y1="176" y2="176" stroke="rgb(0,0,0)" stroke-width="1" stroke-linecap="round" stroke-linejoin="mitter"></line><line x1="128" x2="136" y1="176" y2="176" stroke="rgb(0,0,0)" stroke-width="1" stroke-linecap="round" stroke-linejoin="mitter"></line><line x1="136" x2="144" y1="176" y2="160" stroke="rgb(0,0,0)" stroke-width="1" stroke-linecap="round" stroke-linejoin="mitter"></line><line x1="144" x2="152" y1="160" y2="176" stroke="rgb(0,0,0)" stroke-width="1" stroke-linecap="round" stroke-linejoin="mitter"></line><line x1="152" x2="160" y1="176" y2="160" stroke="rgb(0,0,0)" stroke-width="1" stroke-linecap="round" stroke-linejoin="mitter"></line><line x1="152" x2="168" y1="176" y2="176" stroke="rgb(0,0,0)" stroke-width="1" stroke-linecap="round" stroke-linejoin="mitter"></line><line x1="168" x2="176" y1="176" y2="176" stroke="rgb(0,0,0)" stroke-width="1" stroke-linecap="round" stroke-linejoin="mitter"></line><line x1="176" x2="184" y1="176" y2="176" stroke="rgb(0,0,0)" stroke-width="1" stroke-linecap="round" stroke-linejoin="mitter"></line><line x1="184" x2="192" y1="176" y2="176" stroke="rgb(0,0,0)" stroke-width="1" stroke-linecap="round" stroke-linejoin="mitter"></line><line x1="192" x2="200" y1="176" y2="176" stroke="rgb(0,0,0)" stroke-width="1" stroke-linecap="round" stroke-linejoin="mitter"></line><line x1="200" x2="208" y1="176" y2="176" stroke="rgb(0,0,0)" stroke-width="1" stroke-linecap="round" stroke-linejoin="mitter"></line><line x1="208" x2="216" y1="176" y2="176" stroke="rgb(0,0,0)" stroke-width="1" stroke-linecap="round" stroke-linejoin="mitter"></line><line x1="216" x2="224" y1="176" y2="176" stroke="rgb(0,0,0)" stroke-width="1" stroke-linecap="round" stroke-linejoin="mitter"></line><line x1="224" x2="232" y1="176" y2="176" stroke="rgb(0,0,0)" stroke-width="1" stroke-linecap="round" stroke-linejoin="mitter"></line><line x1="232" x2="240" y1="176" y2="176" stroke="rgb(0,0,0)" stroke-width="1" stroke-linecap="round" stroke-linejoin="mitter"></line><line x1="240" x2="248" y1="176" y2="160" stroke="rgb(0,0,0)" stroke-width="1" stroke-linecap="round" stroke-linejoin="mitter"></line><line x1="248" x2="256" y1="160" y2="176" stroke="rgb(0,0,0)" stroke-width="1" stroke-linecap="round" stroke-linejoin="mitter"></line><line x1="256" x2="272" y1="176" y2="176" stroke="rgb(0,0,0)" stroke-width="1" stroke-linecap="round" stroke-linejoin="mitter"></line><line x1="264" x2="272" y1="160" y2="176" stroke="rgb(0,0,0)" stroke-width="1" stroke-linecap="round" stroke-linejoin="mitter"></line><line x1="272" x2="280" y1="176" y2="160" stroke="rgb(0,0,0)" stroke-width="1" stroke-linecap="round" stroke-linejoin="mitter"></line><line x1="336" x2="344" y1="160" y2="176" stroke="rgb(0,0,0)" stroke-width="1" stroke-linecap="round" stroke-linejoin="mitter"></line><line x1="344" x2="360" y1="176" y2="176" stroke="rgb(0,0,0)" stroke-width="1" stroke-linecap="round" stroke-linejoin="mitter"></line><line x1="352" x2="360" y1="160" y2="176" stroke="rgb(0,0,0)" stroke-width="1" stroke-linecap="round" stroke-linejoin="mitter"></line><line x1="360" x2="368" y1="176" y2="160" stroke="rgb(0,0,0)" stroke-width="1" stroke-linecap="round" stroke-linejoin="mitter"></line><line x1="488" x2="496" y1="160" y2="176" stroke="rgb(0,0,0)" stroke-width="1" stroke-linecap="round" stroke-linejoin="mitter"></line><line x1="496" x2="504" y1="176" y2="160" stroke="rgb(0,0,0)" stroke-width="1" stroke-linecap="round" stroke-linejoin="mitter"></line><line x1="496" x2="512" y1="176" y2="176" stroke="rgb(0,0,0)" stroke-width="1" stroke-linecap="round" stroke-linejoin="mitter"></line><line x1="512" x2="520" y1="176" y2="160" stroke="rgb(0,0,0)" stroke-width="1" stroke-linecap="round" stroke-linejoin="mitter"></line></svg>
